<svg xmlns="http://www.w3.org/2000/svg" viewBox="0 0 384 384" xmlns:v="https://vecta.io/nano"><path d="M192 366.9l-172.2.1c-2.2 0-2.9-.2-2.9-2.7V19.6c0-2.2.5-2.6 2.6-2.6h344.7c2 0 2.7.2 2.7 2.5v345c0 2.5-1 2.4-2.8 2.4H192zm8.5-16.9h123.7c15 0 24.9-10 24.9-25V84.6c0-1.7 0-3.4-.3-5.1-2.2-12.4-11.7-20-24.9-20h-166-2.4c-1.3.1-1.9-.2-2.1-1.8-.6-4.3-2.4-5.6-6.8-5.1-18.9 2.2-35.2-2.9-48.1-17.5-2.3-2.6-5.2-2.5-7.7 0-1.8 1.9-3.5 3.9-5.5 5.6-12.1 10.1-26.1 13.7-41.6 12-5.7-.6-7.3.5-7.8 6.1-.8 8.4-.6 16.8.2 25.2 1.6 16.8 5.5 32.9 13.9 47.6 1.4 2.5 2 4.9 2 7.7l-.2 184.5c-.1 16 11.4 26.6 26.3 26.4l122.4-.2z" fill="#fdfdfd"/><path d="M200.5 350c-40.8 0-81.6-.3-122.4.2-14.8.2-26.3-10.4-26.3-26.4l.2-184.5c0-2.8-.6-5.2-2-7.7-8.4-14.8-12.3-30.9-13.9-47.6-.8-8.4-1-16.8-.2-25.2.5-5.5 2.1-6.7 7.8-6.1 15.5 1.7 29.5-1.9 41.6-12 2-1.7 3.7-3.7 5.5-5.6 2.4-2.6 5.3-2.7 7.7 0 12.9 14.6 29.2 19.6 48.1 17.5 4.3-.5 6.2.7 6.8 5.1.2 1.6.8 1.9 2.1 1.8.8-.1 1.6 0 2.4 0h166c13.2 0 22.7 7.7 24.9 20 .3 1.7.3 3.4.3 5.1V325c0 15.1-9.9 25-24.9 25H200.5zM61.7 147.8c-.1 1-.2 1.3-.2 1.6v176.3c0 9 6 14.8 15.1 14.8h247.9c9.3 0 15.1-5.8 15.1-15.1l.1-195c0-2.5-.5-3.2-3.1-3.2H145c-2.2 0-3.4.6-4.5 2.6-9.1 17.4-22.9 29.6-41.1 37-3.2 1.3-6 1.3-9.1.1-10.8-4.3-20.1-10.6-28.6-19.1zm181.1-30.1l93.8.1c2.5 0 3.2-.6 3.2-3.2-.2-10-.1-20-.1-30 0-9.7-5.8-15.5-15.5-15.5-55.7 0-111.4 0-167.1-.1-2.6 0-3.2.7-3.2 3.2-.1 14.3-2.3 28.3-6.8 41.8-1 2.9-.9 3.7 2.6 3.7h93.1zm-98.3-45c0-2-.1-4.1 0-6.1.2-2.9-.6-4-3.9-3.9-14.7.7-28-3.5-39.8-12.3-2.1-1.5-4.1-4.5-6.1-4.5s-4 2.9-6.1 4.4c-12.1 9-25.7 13.1-40.8 12.4-1.5-.1-2.8-.5-2.9 2-.6 17.5 1.2 34.7 7.7 51.1 7.5 19.1 20.3 33.4 39.5 41.4 1.4.6 2.8 1.1 4.5.3 17.3-7.3 29.9-19.3 37.8-36.3 7.2-15.4 9.8-31.7 10.1-48.5z" fill="#de200b"/><path d="M61.7 147.8c8.5 8.6 17.8 14.8 28.5 19.1 3.2 1.3 6 1.2 9.1-.1 18.2-7.4 32-19.6 41.1-37 1.1-2 2.3-2.6 4.5-2.6h191.6c2.6 0 3.1.7 3.1 3.2l-.1 195c0 9.3-5.8 15.1-15.1 15.1H76.5c-9.1 0-15.1-5.8-15.1-14.8V149.4c.1-.3.2-.6.3-1.6zm51.1 85.1c-16.9 2.9-27.5 12.8-29.1 28.5-1.2 12.1-.7 24.3-.2 36.5.3 7.3 6.4 12.4 13.7 12.5h83.5c7.8 0 13.6-5.7 13.7-13.5.2-11.2.3-22.5-.1-33.8-.4-14.2-10.5-25.9-24.3-29.2-2.8-.7-5.6-.4-8.8-1.1 7.3-7.6 11-16.3 10.5-26.6-.4-10.4-4.8-19-12.9-25.7-13.7-11.3-33.8-10.2-46.6 2.3-11.4 11.4-15.4 33 .6 50.1zm154.8-35.7h42.6c8 0 14.4-4.9 16-12.6 1.2-5.5 1.1-11.1 0-16.6-1.7-8.2-8.2-12.8-17.6-12.8h-78.4c-2.3 0-4.6 0-6.8.2-8.2.7-14.4 7.3-14.8 15.5-.1 2.8-.1 5.7 0 8.5.1 11.2 6.6 17.8 17.8 17.8h41.2zm-14.5 43.9h-37.2c-1.2 0-2.5 0-3.7.2-2.3.4-3.5 1.9-3.7 4.3-.1 2.5 1 4.2 3.4 4.8 1.1.3 2.2.3 3.4.3h75.3c.9 0 1.8 0 2.7-.1 2.6-.5 4-2.1 4-4.7s-1.5-4.2-4.1-4.6c-1.1-.2-2.3-.1-3.4-.1l-36.7-.1zm-8.1-17.3h30.6c4 0 6.1-1.7 6-4.8 0-3-2.2-4.7-6.2-4.7h-60.6c-4.3 0-6.4 1.6-6.3 4.9 0 3.2 2 4.7 6.5 4.7l30-.1z" fill="#fdfdfd"/><path d="M242.8 117.7c-31 0-62.1-.1-93.1.1-3.4 0-3.5-.8-2.6-3.7 4.5-13.6 6.7-27.6 6.8-41.8 0-2.5.6-3.2 3.2-3.2l167.1.1c9.7 0 15.4 5.8 15.5 15.5l.1 30c0 2.6-.6 3.2-3.2 3.2l-93.8-.2zm67.1-29h-9.5c-3 .1-4.6 1.7-4.9 4.6-.3 2.6 1.9 4.9 4.9 4.9 6.2.1 12.5.1 18.7 0 3.2 0 5-2 5-4.8 0-2.9-1.8-4.6-5.1-4.7-3-.1-6.1-.1-9.1 0zm-76.6 0c-3.2 0-6.4-.1-9.5 0-2.9.1-4.7 1.6-4.9 4.6-.2 2.7 1.8 4.9 4.9 4.9 6.2.1 12.5.1 18.7 0 3.1 0 5.1-2 5.1-4.8s-1.9-4.6-5.1-4.7c-3.1-.1-6.1-.1-9.2 0zm38.7-.1h-9.5c-3.3.1-5.4 2-5.3 4.8.1 2.7 2.1 4.6 5.2 4.7 6.1.1 12.2.1 18.4 0 3.2 0 5.1-1.9 5.1-4.7 0-3-1.9-4.7-5.3-4.8H272z" fill="#fbfbfb"/><path d="M144.5 72.7c-.3 16.8-2.9 33.1-10.1 48.6-7.9 17-20.6 29-37.8 36.3-1.7.7-3.1.3-4.5-.3-19.2-8.1-31.9-22.3-39.5-41.4-6.5-16.4-8.3-33.6-7.7-51.1.1-2.5 1.4-2 2.9-2 15.1.7 28.7-3.4 40.8-12.4 2.1-1.5 4.1-4.4 6.1-4.4s4 2.9 6.1 4.5c11.8 8.7 25.1 13 39.8 12.3 3.3-.2 4.1.9 3.9 3.9-.1 1.9 0 3.9 0 6zm-62.4 49.4c2 0 3.1-.9 4.2-1.9l37-31.7a13.65 13.65 0 0 0 1.7-1.7c1.3-2 1.2-4.1-.4-5.9-1.5-1.7-3.5-2.1-5.6-1-1 .5-1.8 1.3-2.7 2.1l-30.5 26.2c-2.2 1.9-3 1.5-4.4-.7-2.9-4.6-6-9.1-9.1-13.6-1.9-2.7-4.5-3.2-6.8-1.7-2.3 1.6-2.9 4.2-1.2 6.9l13.8 20.6c1.2 1.5 2.5 2.3 4 2.4z" fill="#fdfdfd"/><path d="M112.8 232.9c-16-17.1-12-38.7-.3-50.2 12.8-12.5 32.9-13.6 46.6-2.3 8 6.6 12.4 15.2 12.9 25.7.4 10.3-3.2 19-10.5 26.6 3.2.7 6.1.5 8.8 1.1 13.8 3.3 23.9 15.1 24.3 29.2.3 11.2.3 22.5.1 33.8-.1 7.8-5.9 13.5-13.7 13.5H97.5c-7.4 0-13.5-5.2-13.7-12.5-.5-12.1-1-24.4.2-36.5 1.3-15.6 11.9-25.5 28.8-28.4zm26.1 67.9h40.2c4.7 0 5.9-1.2 6-5.7v-29.7c-.2-13.6-9.4-22.7-23-22.8-15.3 0-30.7-.1-46 0-13.7.1-23 9.5-23.1 23.2v29c0 4.7 1.3 6 6.1 6h39.8zm-27.2-93.4c-.1 14.2 11.2 25.6 25.4 25.6 13.8 0 25.1-11.3 25.2-25.1.1-14-11.1-25.5-25.1-25.6-13.9-.2-25.4 11.1-25.5 25.1zm155.9-10.2h-41.3c-11.2 0-17.7-6.6-17.8-17.8 0-2.8-.1-5.7 0-8.5.3-8.3 6.6-14.8 14.8-15.5 2.3-.2 4.5-.2 6.8-.2h78.4c9.4 0 16 4.6 17.6 12.8 1.1 5.4 1.1 11.1 0 16.6-1.6 7.7-8 12.6-16 12.6h-42.5zm0-9.5h41.9c5.2 0 7.7-2.6 7.7-7.8v-5.4c0-7.7-2-9.7-9.6-9.7h-80c-1 0-2 0-3.1.1-3.9.4-6.1 2.8-6.3 6.7-.1 2.5-.1 5 0 7.5 0 6.4 2.2 8.6 8.6 8.6h40.8zm-14.5 53.4h36.8l3.4.1c2.6.4 4.1 2 4.1 4.6 0 2.7-1.4 4.2-4 4.7-.9.2-1.8.1-2.7.1h-75.3c-1.1 0-2.3 0-3.4-.3-2.4-.6-3.6-2.3-3.4-4.8.1-2.3 1.4-3.8 3.7-4.3 1.2-.2 2.5-.2 3.7-.2l37.1.1zm-8.1-17.3h-30c-4.5 0-6.4-1.4-6.5-4.7 0-3.2 2.1-4.9 6.3-4.9h60.6c4 0 6.1 1.7 6.2 4.7 0 3.1-2.1 4.8-6 4.8l-30.6.1zm64.9-135.2h9.2c3.2.1 5 1.9 5.1 4.7 0 2.8-1.9 4.7-5 4.8-6.2.1-12.5.1-18.7 0-3-.1-5.2-2.3-4.9-4.9.3-2.9 2-4.5 4.9-4.6 3 0 6.2.1 9.4 0zm-76.6 0h9.2c3.1.1 5.1 1.9 5.1 4.7 0 2.7-2 4.7-5.1 4.8-6.2.1-12.5.1-18.7 0-3.1-.1-5.1-2.2-4.9-4.9.2-3 1.9-4.5 4.9-4.6 3.2 0 6.3.1 9.5 0zm38.7 0h8.5c3.5.1 5.4 1.8 5.3 4.8 0 2.8-1.9 4.7-5.1 4.7-6.1.1-12.2.1-18.4 0-3.1 0-5.2-2-5.2-4.7-.1-2.8 2-4.8 5.3-4.8h9.6zM82.1 122.1c-1.5 0-2.9-.9-3.9-2.4L64.4 99.1c-1.7-2.6-1.2-5.3 1.2-6.9 2.3-1.5 4.9-1 6.8 1.7 3.1 4.5 6.2 8.9 9.1 13.6 1.4 2.2 2.3 2.6 4.4.7L116.4 82c.9-.7 1.7-1.5 2.7-2.1 2.1-1.1 4-.7 5.6 1 1.7 1.8 1.8 3.9.4 5.9-.4.6-1.1 1.2-1.7 1.7l-37 31.7c-1.2.9-2.3 1.9-4.3 1.9z" fill="#de200b"/><path d="M138.9 300.8H99c-4.8 0-6.1-1.3-6.1-6v-29c.1-13.7 9.4-23.1 23.1-23.2h46c13.6 0 22.9 9.2 23 22.8v29.7c0 4.6-1.3 5.7-6 5.7h-40.1z" fill="#fdfdfd"/><path d="M111.7 207.4c.1-14 11.5-25.3 25.5-25.2 13.9.1 25.2 11.6 25.1 25.6-.1 13.8-11.4 25.1-25.2 25.1-14.1 0-25.4-11.3-25.4-25.5z" fill="#fcfcfc"/><path d="M267.6 187.7h-40.9c-6.3 0-8.6-2.2-8.6-8.6 0-2.5-.1-5 0-7.5.2-3.9 2.5-6.3 6.3-6.7 1-.1 2-.1 3.1-.1h80c7.6 0 9.6 2 9.6 9.7v5.4c-.1 5.2-2.5 7.7-7.7 7.8h-41.8z" fill="#fefefe"/></svg>