<svg width="373" height="381" viewBox="0 0 373 381" fill="none" xmlns="http://www.w3.org/2000/svg">
<g filter="url(#filter0_d_1_849)">
<path d="M262.1 0.150009C262 0.250009 257.3 0.650012 251.8 0.950012C241.7 1.45001 221.5 4.25001 217.8 5.65001C216.7 6.05001 212.9 7.15 209.3 8.05C205.7 9.05 200.6 10.45 197.8 11.15C191.8 12.75 179.3 17.15 173.8 19.65C171.6 20.65 166.4 22.85 162.3 24.65C158.2 26.35 152.3 29.05 149.3 30.65C146.3 32.15 141.2 34.75 138.1 36.25C134.9 37.65 132.3 39.35 132.3 39.75C132.3 40.25 131.4 40.65 130.3 40.65C129.2 40.65 128.3 41.05 128.3 41.65C128.3 42.15 127.4 42.65 126.3 42.65C125.2 42.65 124.3 42.95 124.3 43.45C124.3 43.85 122.6 44.95 120.6 45.85C118.5 46.85 114.8 49.05 112.3 50.85C96.6 62.25 89.3 67.95 89.3 68.75C89.3 69.25 88.7 69.65 88.1 69.65C87.4 69.65 85.2 71.15 83.2 72.95C81.3 74.65 77.2 78.25 74.2 80.75C56.2 96.15 10.1 145.65 5.1 154.95L4 157.15L6.4 154.95C12.3 149.55 18.7 144.45 23.9 141.05C27 139.05 29.7 136.75 30 135.95C30.3 135.25 31.1 134.65 31.8 134.65C32.4 134.65 36.8 132.25 41.4 129.35C46 126.35 55.7 120.55 62.8 116.35C70 112.15 76.3 108.25 77 107.75C77.7 107.15 78.8 106.65 79.6 106.65C80.3 106.65 81.3 106.25 81.9 105.75C83.1 104.55 114.5 88.65 115.7 88.65C116.2 88.65 120.4 86.75 125.2 84.45C129.9 82.15 135.2 79.75 136.8 79.15C138.5 78.45 141.8 77.05 144.3 75.85C146.8 74.75 155.8 71.25 164.3 68.15C172.8 64.95 180.3 62.05 180.9 61.55C181.4 61.05 183.5 60.55 185.4 60.25C189.7 59.75 193.2 58.85 200.8 56.65C216.2 52.05 242.6 51.45 254.4 55.55C269.3 60.65 279.5 68.35 284.8 78.55C287.9 84.55 289.4 91.05 290 100.65C290.5 108.85 290.2 111.65 287.9 121.15C284.5 134.85 284.2 135.75 278 148.65C273.7 157.55 264.5 172.95 262.4 174.65C260.2 176.45 253.4 185.65 254.2 185.65C254.8 185.65 260.8 181.85 267.6 177.15C280.9 167.95 284 165.85 298.3 156.35C320.9 141.35 339.7 127.75 340.5 125.95C340.6 125.45 342 124.15 343.6 122.95C346.6 120.65 355.3 110.45 355.3 109.25C355.3 108.75 356.2 107.25 357.3 105.75C358.3 104.15 360.2 99.35 361.4 95.05C363.3 88.25 363.5 85.55 363 75.75C362.6 69.55 361.8 63.85 361.2 63.05C360.6 62.25 360.3 60.75 360.6 59.65C361.1 57.75 359.4 51.35 358 50.05C357.6 49.65 357.3 48.25 357.3 46.95C357.3 44.15 353.4 36.25 350.3 32.65C344.6 25.95 336.8 18.55 334.2 17.45C332.6 16.75 331.3 15.85 331.3 15.55C331.3 15.15 327.8 13.45 323.6 11.65C319.3 9.85001 314.9 8.05 313.8 7.55C312.7 7.05 309.8 6.15 307.3 5.55C295.2 2.65 288.9 1.65001 279.3 1.15001C273.5 0.850009 267.4 0.350009 265.6 0.150009C263.9 -0.0499908 262.3 -0.0499908 262.1 0.150009ZM202.8 15.45C204.3 16.45 204.1 19.15 202.5 19.15C201.8 19.15 200.8 19.75 200.3 20.55C199.6 21.75 199.1 21.75 198 20.85C197.3 20.15 196.3 19.95 196 20.35C195.6 20.65 195.3 20.45 195.3 19.75C195.3 18.35 199.2 14.75 200.8 14.65C201.4 14.65 202.3 15.05 202.8 15.45ZM215.3 15.35C215.3 15.85 214.4 17.25 213.3 18.65C211.7 20.65 211.3 20.85 211.3 19.35C211.3 18.45 211.8 17.65 212.3 17.65C212.9 17.65 213.3 16.95 213.3 16.15C213.3 15.35 213.8 14.65 214.3 14.65C214.9 14.65 215.3 14.95 215.3 15.35ZM321.4 17.45C318.6 17.85 316 16.95 316.7 15.75C317.1 15.25 318.6 15.35 320.4 15.95C323.2 17.05 323.3 17.15 321.4 17.45ZM198.3 27.65C198.3 29.25 197.9 30.65 197.3 30.65C196.2 30.65 195.9 26.35 197 25.35C198.1 24.15 198.3 24.55 198.3 27.65ZM198.1 40.35C197.9 43.35 196.6 45.65 195.2 45.65C193.8 45.65 194.2 42.75 195.9 40.15C198 36.95 198.3 37.05 198.1 40.35ZM187.6 53.35C187.9 52.65 188.2 52.85 188.2 53.85C188.3 55.65 187.3 56.05 184.3 55.65C182.3 55.35 182 54.95 182.8 53.75C183.2 52.95 184 52.95 185.3 53.65C186.6 54.35 187.3 54.25 187.6 53.35ZM67.5 95.45C66.8 95.65 66.5 96.25 66.9 96.75C67.2 97.25 66.9 97.65 66.4 97.65C65.1 97.65 65.1 97.35 65.9 95.25C66.2 94.35 67 93.95 67.6 94.35C68.4 94.85 68.3 95.15 67.5 95.45Z" fill="#FF0C0C"/>
<path d="M253.162 25.9129L253.099 25.9163L253.036 25.9194C249.343 26.1022 243.282 26.7282 237.268 27.5307C237.204 27.6545 237.141 27.7755 237.078 27.8934C245.758 28.1904 254.967 29.2924 262.542 31.9131C281.186 38.3034 297.765 49.2804 306.984 67.023L306.997 67.0488L307.011 67.0745C312.262 77.2379 314.227 87.5012 314.951 99.0905L314.953 99.1095L314.954 99.1284C315.228 103.633 315.38 108.003 314.868 112.974C314.81 113.545 314.743 114.113 314.67 114.678C317.513 112.606 319.721 110.942 321.237 109.743C321.344 109.659 321.444 109.578 321.539 109.503C322.573 108.248 323.563 107.262 324.216 106.638C325.415 105.492 326.678 104.433 327.85 103.523C328.024 103.352 328.273 103.099 328.597 102.76C329.465 101.848 330.527 100.668 331.56 99.457C332.113 98.8093 332.593 98.2291 332.984 97.7439C333.462 96.7437 333.924 95.914 334.262 95.332C334.731 94.5226 335.226 93.7367 335.719 92.9969C335.791 92.8211 335.872 92.6177 335.961 92.3876C336.458 91.1034 336.965 89.6009 337.32 88.33L337.322 88.3224C338.091 85.5716 338.146 84.942 338.183 84.4864C338.257 83.5832 338.283 81.9856 338.041 77.1982C337.89 74.9075 337.681 72.8304 337.482 71.3243C336.72 69.3547 336.257 67.5194 335.974 65.9788C335.709 64.5379 335.513 62.8671 335.486 61.0302C335.039 60.1479 334.741 59.4348 334.558 58.9843C333.807 57.1329 333.364 55.47 333.095 54.2606C332.872 53.2536 332.696 52.2336 332.568 51.2136C332.553 51.1823 332.537 51.1505 332.522 51.1183C332.182 50.4277 331.802 49.7438 331.464 49.1992C331.33 48.9828 331.228 48.8307 331.166 48.7407C329.296 46.5508 327.076 44.1963 325.024 42.1862L324.936 42.1987C320.432 42.842 314.861 42.714 309.35 40.7509C307.009 39.9172 301.363 37.6098 296.897 31.7784C296.114 30.7561 295.349 29.5962 294.655 28.3061C288.056 26.9051 283.896 26.4236 278.009 26.1166C272.727 25.8434 267.041 25.407 264.024 25.1181C263.947 25.1264 263.875 25.134 263.809 25.1408C262.987 25.2263 261.997 25.3131 260.969 25.3954C258.869 25.5633 256.108 25.7522 253.162 25.9129ZM330.3 109.25C330.3 108.358 330.349 107.499 330.434 106.684C330.354 107.445 330.3 108.307 330.3 109.25ZM327.605 103.757C327.606 103.757 327.621 103.743 327.651 103.715C327.62 103.743 327.604 103.758 327.605 103.757ZM316.585 40.396C317.628 40.4562 319.818 40.5074 322.589 39.8967C322.305 39.6418 322.053 39.4221 321.836 39.2371C320.621 38.6095 319.422 37.9106 318.283 37.1513C317.811 36.8372 317.159 36.3867 316.412 35.805C315.771 35.5107 314.999 35.1668 314.121 34.7873L312.494 39.6671C312.928 39.8116 314.359 40.2676 316.585 40.396ZM313.159 34.3818C311.857 33.838 310.568 33.3033 309.362 32.8026C308.861 32.595 308.375 32.3932 307.908 32.199L307.871 32.1839C306.64 31.6721 305.203 31.0751 304.156 30.6198C304.043 30.5827 303.893 30.5343 303.705 30.4765C302.99 30.2558 302.157 30.0258 301.473 29.8615C301.377 29.8384 301.281 29.8155 301.186 29.7927C301.485 30.2976 301.781 30.7551 302.061 31.1632C305.222 35.7597 309.154 38.0204 309.641 38.3002C309.66 38.3109 309.673 38.3188 309.682 38.3237C310.338 38.7135 310.904 39.0036 311.273 39.1832L313.159 34.3818ZM279.169 18.4159C278.902 18.6652 278.635 18.903 278.37 19.1295L278.37 19.1306C278.635 18.904 278.901 18.6658 279.169 18.4159ZM276.465 20.6081C277.073 20.1822 277.712 19.694 278.363 19.1364L278.363 19.1353C277.712 19.6924 277.072 20.1817 276.465 20.6081ZM149.3 43.45C149.3 44.3018 149.257 45.1238 149.179 45.9145C149.258 45.1164 149.3 44.2947 149.3 43.45ZM153.3 41.65C153.3 43.0616 153.186 44.4034 152.985 45.6731C152.988 45.6718 152.992 45.6705 152.995 45.6692C153.192 44.4061 153.3 43.0674 153.3 41.65Z" stroke="#FF0E0E" stroke-width="50"/>
</g>
<path d="M232.5 83.4578C229.5 84.5578 221.4 88.3578 214.5 91.9578C207.6 95.6578 200.6 99.3578 198.9 100.258C196 101.758 195.4 101.758 189.4 99.7578C163.3 91.4578 154 88.5578 153.4 88.5578C152.7 88.5578 143.3 96.2578 131 106.958L127 110.458L134 113.558C137.9 115.258 143.4 117.858 146.4 119.258C149.4 120.658 153.5 122.358 155.4 123.058C160.4 124.758 160.4 126.858 155.5 130.158C148.5 135.058 138.2 142.858 134.5 146.158C132.6 147.858 125.4 154.158 118.5 160.158C101.4 174.958 54.9 221.658 44 234.858C32.5 248.758 28 255.358 23.5 264.558C17.1 277.558 16 282.458 16 297.058C16 309.158 16.2 310.358 18.7 315.058C28.8 334.258 48.2 340.558 92.9 339.258C139.7 337.858 181.3 326.258 211.5 305.958C225.4 296.658 252.5 272.758 252.5 269.858C252.5 269.158 246 271.958 238 276.058C214.8 287.958 197.7 292.458 175.4 292.658C152.2 292.858 137.3 287.958 127.7 277.058C122.5 271.158 121.1 264.858 121.8 251.058C122.6 234.958 128.6 221.858 144.2 202.558C151.5 193.558 154.1 190.658 174.3 170.258C182.8 161.558 190.2 154.858 190.6 155.258C191 155.658 192.8 164.558 194.5 175.058C196.3 185.458 197.8 194.158 198 194.358C198.2 194.558 203.5 190.858 209.9 186.158L221.5 177.558V151.458V125.358L233.8 113.558C244.3 103.458 246.5 100.758 248.3 96.0578C250.9 89.3578 251.1 85.9578 248.9 83.8578C246.6 81.5578 238.9 81.3578 232.5 83.4578Z" fill="#3F2121"/>
<path d="M297.596 179.817C287.096 181.617 276.996 184.317 272.096 186.517C270.996 187.017 268.496 188.117 266.496 188.917C263.296 190.117 253.396 195.417 241.096 202.517C238.896 203.717 235.996 205.617 234.696 206.617C233.396 207.717 231.896 208.517 231.496 208.517C230.996 208.517 226.896 211.017 222.396 214.217C217.796 217.317 211.396 221.717 208.096 223.917C202.996 227.417 202.396 228.017 204.396 228.317C205.596 228.517 208.096 228.217 209.896 227.617C222.196 223.717 257.996 222.617 267.196 225.817C275.196 228.617 280.996 232.917 283.196 237.617C286.096 244.217 285.496 255.217 281.596 265.117C274.496 283.317 261.596 300.817 247.196 311.917C243.396 314.917 234.796 320.517 234.196 320.517C233.896 320.517 230.696 322.217 226.896 324.317C223.196 326.417 218.496 328.717 216.596 329.517C214.696 330.217 210.796 331.817 207.996 333.117C201.896 335.817 174.396 343.717 163.096 346.117C158.696 347.017 154.196 348.117 153.096 348.517C151.996 349.017 148.896 349.617 146.096 350.017C143.396 350.317 135.696 351.517 129.096 352.517C114.196 354.817 87.5961 357.917 64.5961 360.117C54.9961 361.017 46.6961 362.117 46.1961 362.517C43.4961 365.117 69.1961 372.817 91.5961 376.017C121.396 380.317 140.996 381.217 167.696 379.617C202.896 377.417 223.796 373.217 253.096 362.117C278.196 352.617 307.496 334.317 330.096 314.117C347.196 298.817 355.296 288.517 363.396 271.517C373.496 250.417 375.696 222.517 368.496 208.317C365.796 203.017 356.396 193.117 352.496 191.517C350.896 190.817 349.596 189.917 349.596 189.517C349.596 189.117 345.796 187.117 341.096 185.117C328.696 180.017 309.896 177.617 297.596 179.817Z" fill="#038F11"/>
<defs>
<filter id="filter0_d_1_849" x="0" y="0" width="367.234" height="193.65" filterUnits="userSpaceOnUse" color-interpolation-filters="sRGB">
<feFlood flood-opacity="0" result="BackgroundImageFix"/>
<feColorMatrix in="SourceAlpha" type="matrix" values="0 0 0 0 0 0 0 0 0 0 0 0 0 0 0 0 0 0 127 0" result="hardAlpha"/>
<feOffset dy="4"/>
<feGaussianBlur stdDeviation="2"/>
<feComposite in2="hardAlpha" operator="out"/>
<feColorMatrix type="matrix" values="0 0 0 0 0 0 0 0 0 0 0 0 0 0 0 0 0 0 0.25 0"/>
<feBlend mode="normal" in2="BackgroundImageFix" result="effect1_dropShadow_1_849"/>
<feBlend mode="normal" in="SourceGraphic" in2="effect1_dropShadow_1_849" result="shape"/>
</filter>
</defs>
</svg>
