<svg width="129" height="154" viewBox="0 0 129 154" fill="none" xmlns="http://www.w3.org/2000/svg">
<path d="M70.7951 1.1684C57.9464 4.5684 42.46 12.7684 30.8027 22.4684C25.0165 27.2684 7.74321 46.9684 2.80798 54.4684L0 58.7684L6.55195 53.1684C19.6558 42.1684 40.0775 30.0684 56.6701 23.4684C72.1565 17.3684 84.4946 18.6684 90.0254 27.1684C95.4712 35.6684 92.9185 52.3684 83.984 66.0684C80.9208 70.7684 81.0059 70.7684 94.8756 59.7684C114.702 44.0684 117.339 40.0684 116.488 26.8684C115.638 13.8684 110.362 5.7684 100.321 2.0684C94.1949 -0.231599 77.9426 -0.731599 70.7951 1.1684Z" fill="#FF0B0B"/>
<path d="M68.7529 41.1688C62.0308 45.2688 61.6053 45.2688 55.0534 42.6688C52.3305 41.5688 49.4374 40.6688 48.6716 40.6688C47.8207 40.6688 45.5233 42.4688 43.4811 44.5688L39.7371 48.4688L45.1829 51.3688L50.5436 54.2688L43.0556 61.3688C35.3124 68.6688 15.1461 91.9688 10.2959 99.1688C-0.170178 114.969 1.02108 130.769 13.189 134.769C17.7839 136.369 33.8659 136.269 41.0135 134.769C49.8629 132.769 58.9675 128.969 64.6686 124.969C69.6889 121.369 80.5804 110.869 79.9848 110.169C79.8146 109.969 77.347 111.069 74.539 112.669C71.731 114.269 66.8809 116.369 63.9027 117.269C53.6068 120.369 41.524 117.169 38.716 110.669C36.0782 104.569 38.0353 94.5688 43.4811 86.2688C48.4163 78.5688 59.478 65.0688 60.1588 65.8688C60.4991 66.1688 61.1799 69.6688 61.6053 73.4688L62.5413 80.5688L66.2853 77.5688L69.9441 74.5688V64.6688V54.7688L74.6241 49.3688C78.3681 45.0688 79.3041 43.2688 79.3041 40.8688C79.3041 38.0688 79.0488 37.6688 76.8364 37.6688C75.5601 37.6688 71.9012 39.2688 68.7529 41.1688Z" fill="#3E8BFF"/>
<path d="M99.3003 78.0691C92.6633 80.5691 74.1987 93.0691 75.3049 94.2691C75.5601 94.5691 78.5383 94.3691 81.8568 93.7691C93.5993 91.5691 100.577 95.2691 100.577 103.469C100.577 107.169 96.3222 117.069 92.408 122.469C84.5797 133.269 67.9871 140.269 41.439 144.069C35.3976 144.969 28.8456 145.869 27.0587 146.169C25.1867 146.469 23.57 146.869 23.3998 147.069C22.8042 147.669 30.8027 150.469 36.3336 151.569C67.902 157.769 96.9178 148.569 116.318 126.169C125.848 115.169 128.231 109.469 128.231 96.9691C128.231 88.1691 128.146 87.6691 125.678 84.5691C121.509 79.3691 115.638 76.6691 108.66 76.7691C105.427 76.7691 101.172 77.3691 99.3003 78.0691Z" fill="#02770E"/>
</svg>
