<svg width="685" height="154" viewBox="0 0 685 154" fill="none" xmlns="http://www.w3.org/2000/svg">
<path d="M202.515 51.6675C196.133 68.6675 190.687 83.5675 190.347 84.6675C189.836 86.5675 190.177 86.6675 196.048 86.6675H202.259L204.812 78.8675L207.45 71.1675H220.469H233.573L236.125 78.8675L238.678 86.6675H245.4C249.059 86.6675 252.037 86.4675 252.037 86.2675C252.037 85.8675 239.274 52.1675 232.041 33.3675L227.191 20.6675H220.639H214.172L202.515 51.6675ZM225.149 47.1675C227.276 53.4675 229.063 58.8675 229.063 59.1675C229.063 59.4675 225.234 59.6675 220.554 59.6675C215.278 59.6675 212.045 59.2675 212.045 58.6675C212.045 56.5675 219.958 34.7675 220.554 35.1675C220.979 35.4675 223.021 40.8675 225.149 47.1675Z" fill="#FF1717"/>
<path d="M257.143 22.4675C257.143 23.4675 257.058 38.3675 256.972 55.6675L256.717 87.1675H262.673H268.63L269.055 75.6675L269.481 64.1675L279.862 64.4675C293.987 64.9675 299.092 63.6675 303.602 58.2675C313.302 46.8675 308.707 26.2675 295.774 22.8675C293.476 22.2675 283.861 21.5675 274.416 21.2675C258.759 20.8675 257.143 20.9675 257.143 22.4675ZM285.222 33.6675C290.498 34.3675 291.859 34.8675 293.476 37.1675C295.774 40.1675 295.944 43.5675 294.157 47.5675C292.455 51.5675 288.966 52.6675 278.33 52.6675H269.055V43.3675C269.055 38.1675 269.311 33.6675 269.651 33.3675C270.417 32.4675 277.479 32.5675 285.222 33.6675Z" fill="#3E8BFF"/>
<path d="M324.023 24.2675C317.301 27.0675 314.664 32.0675 314.664 41.6675C314.664 56.2675 319.939 60.5675 337.978 60.6675C349.721 60.6675 354.571 61.7675 355.847 64.6675C357.209 67.5675 356.868 71.1675 355.081 73.7675C353.465 76.1675 353.209 76.1675 335.085 76.4675L316.706 76.8675V82.2675V87.6675H336.191C357.039 87.6675 360.868 86.9675 365.037 82.4675C367.76 79.3675 369.802 70.6675 369.036 64.8675C367.505 52.7675 363.846 50.5675 344.275 49.7675C328.959 49.0675 326.917 48.2675 326.917 42.4675C326.917 34.7675 329.81 33.6675 350.572 33.6675H366.058V28.1675V22.6675L346.743 22.7675C332.107 22.7675 326.491 23.1675 324.023 24.2675Z" fill="#207901"/>
<path d="M416.687 23.2675C416.261 23.3675 414.134 24.0675 412.177 24.6675C403.668 27.2675 397.797 37.9675 396.946 52.6675C395.755 72.4675 403.328 85.2675 417.538 87.6675C426.387 89.1675 443.49 88.9675 443.575 87.3675C443.575 86.7675 443.745 84.5675 443.831 82.6675C444.171 76.5675 444.426 76.6675 431.152 76.6675C424.43 76.6675 417.963 76.2675 416.857 75.7675C409.029 72.2675 407.072 48.1675 413.879 39.0675C417.197 34.5675 420.601 33.6675 433.535 33.6675H444.341V28.1675V22.5675L430.982 22.7675C423.579 22.8675 417.197 23.0675 416.687 23.2675Z" fill="#3E8BFF"/>
<path d="M468.081 27.3675C467.145 29.9675 461.785 44.3675 456.169 59.1675C450.638 74.0675 446.043 86.7675 446.043 87.4675C446.043 88.2675 447.83 88.6675 451.914 88.6675H457.87L460.338 80.8675L462.891 73.1675H475.824H488.843L491.396 80.8675L493.949 88.6675H500.671C504.33 88.6675 507.308 88.4675 507.308 88.3675C507.308 88.1675 501.777 73.3675 495.055 55.5675L482.887 23.1675L476.335 22.8675L469.868 22.5675L468.081 27.3675ZM480.079 47.8675C482.206 54.0675 484.078 59.4675 484.163 59.8675C484.333 60.3675 480.589 60.6675 475.824 60.6675C471.059 60.6675 467.315 60.2675 467.486 59.7675C469.528 53.1675 475.484 36.6675 475.824 36.6675C476.08 36.6675 477.952 41.7675 480.079 47.8675Z" fill="#3E8BFF"/>
<path d="M511.903 55.3676L511.988 88.1676L517.689 88.4676L523.39 88.7676L523.645 75.9676L523.9 63.1676L532.154 62.8676C539.642 62.6676 540.493 62.7676 542.535 64.8676C544.407 66.8676 544.833 68.2676 545.173 74.6676C545.513 78.7676 545.854 83.6676 546.109 85.3676L546.534 88.6676H553.427C559.553 88.6676 560.149 88.4676 559.638 86.8676C558.447 83.6676 557.596 77.2676 557.511 71.8676C557.511 65.6676 555.894 60.5676 553.342 58.4676C551.555 56.9676 551.555 56.9676 554.788 53.0676C559.809 47.1676 560.574 37.4676 556.66 29.8676C553.512 23.7676 551.47 23.1676 530.623 22.8676L511.818 22.5676L511.903 55.3676ZM542.535 34.6676C547.811 36.9676 548.747 45.8676 544.067 49.4676C542.28 50.7676 539.982 51.1676 532.835 51.1676H523.9L523.645 43.7676C523.475 39.6676 523.56 35.7676 523.815 34.9676C524.326 33.3676 539.132 33.0676 542.535 34.6676Z" fill="#3E8BFF"/>
<path d="M584.144 23.6675C580.911 24.5675 574.699 28.7675 572.657 31.3675C571.891 32.3675 570.19 35.8675 568.828 39.1675C566.786 44.4675 566.531 46.3675 566.446 55.1675C566.446 71.5675 570.019 79.9675 579.464 85.3675C584.314 88.1675 584.314 88.1675 602.183 88.1675H620.052L620.308 68.6675L620.478 49.1675L610.948 49.3675C605.672 49.4675 599.12 49.5675 596.482 49.5675L591.547 49.6675V55.1675V60.6675H599.631H607.714V68.6675V76.6675H600.397C586.612 76.6675 582.357 73.7675 580.485 62.9675C578.528 52.2675 580.996 40.5675 585.931 36.3675C588.399 34.2675 589.59 34.1675 604.566 33.8675L620.478 33.4675V28.0675V22.6675L603.715 22.7675C594.44 22.8675 585.676 23.1675 584.144 23.6675Z" fill="#3E8BFF"/>
<path d="M350.742 113.668C347.593 117.368 348.615 120.168 354.401 123.568C357.549 125.468 358.23 127.768 356.273 130.068C354.486 132.168 353.635 132.068 351.593 129.668C348.529 126.068 347.083 127.368 349.551 131.468C351.933 135.568 357.889 133.868 359.421 128.668C360.272 125.868 358.485 122.768 354.996 120.668C350.146 117.768 350.572 115.068 355.847 115.368L359.676 115.568L357.634 113.568C355.081 111.168 352.869 111.168 350.742 113.668Z" fill="#3E8BFF"/>
<path d="M362.654 123.168C362.654 129.468 362.995 133.668 363.505 133.668C364.016 133.668 364.356 129.468 364.356 123.168C364.356 116.868 364.016 112.668 363.505 112.668C362.995 112.668 362.654 116.868 362.654 123.168Z" fill="#3E8BFF"/>
<path d="M370.142 113.268C369.206 115.268 366.654 132.668 367.164 133.268C368.185 134.468 368.781 132.968 369.887 126.468L370.908 120.168L373.291 126.368C374.652 129.868 375.929 132.668 376.269 132.668C376.609 132.668 377.971 129.868 379.247 126.368C381.544 120.268 381.63 120.168 382.225 123.168C382.651 124.768 383.161 127.868 383.416 129.868C384.012 133.968 385.629 135.068 385.629 131.368C385.544 130.168 384.863 125.368 384.012 120.668L382.48 112.168L380.523 117.168C379.502 119.868 378.141 123.468 377.545 125.168L376.439 128.168L374.567 123.168C373.546 120.368 372.185 116.868 371.589 115.268C370.993 113.668 370.398 112.768 370.142 113.268Z" fill="#3E8BFF"/>
<path d="M388.182 123.268C388.182 131.268 388.437 133.768 389.288 133.468C389.798 133.168 390.394 131.168 390.564 128.968C390.819 125.168 391.075 124.868 393.627 124.268C396.18 123.668 398.392 120.668 398.392 117.668C398.392 115.268 394.904 112.668 391.585 112.668H388.182V123.268ZM395.329 116.868C396.52 119.168 395.074 122.068 392.521 122.468C390.904 122.768 390.734 122.368 390.734 118.668C390.734 114.968 390.904 114.568 392.521 114.868C393.542 115.068 394.819 115.968 395.329 116.868Z" fill="#3E8BFF"/>
<path d="M400.094 123.168V133.668H403.923C406.646 133.668 407.752 133.268 407.752 132.268C407.752 131.368 406.901 130.968 405.2 131.068L402.647 131.268V121.968C402.647 114.368 402.392 112.668 401.371 112.668C400.349 112.668 400.094 114.468 400.094 123.168Z" fill="#3E8BFF"/>
<path d="M409.454 123.168V133.668H414.134C417.623 133.668 418.814 133.268 418.814 132.268C418.814 131.168 417.963 130.868 415.41 131.168L412.007 131.568V127.668C412.007 123.668 412.007 123.668 415.41 123.668C417.878 123.668 418.814 123.268 418.814 122.168C418.814 121.068 417.878 120.668 415.41 120.668C412.177 120.668 412.007 120.468 412.007 117.668C412.007 114.868 412.177 114.668 415.41 114.668C417.282 114.668 418.814 114.168 418.814 113.668C418.814 113.068 416.687 112.668 414.134 112.668H409.454V123.168Z" fill="#3E8BFF"/>
<path d="M431.578 121.868C426.812 134.068 426.983 133.668 428.429 133.668C429.11 133.668 429.961 132.568 430.216 131.168C430.727 128.868 431.152 128.668 435.322 128.668C439.321 128.668 439.916 128.968 440.767 131.168C441.278 132.568 442.299 133.668 443.065 133.668C444.086 133.668 443.916 132.568 442.129 127.868C440.852 124.768 439.065 120.068 438.129 117.368C437.108 114.768 436.087 112.668 435.747 112.668C435.492 112.668 433.62 116.868 431.578 121.868ZM437.108 121.268C438.725 125.968 438.81 125.668 435.492 125.668H432.514L433.96 121.668C434.726 119.468 435.492 117.668 435.577 117.668C435.747 117.668 436.428 119.268 437.108 121.268Z" fill="#3E8BFF"/>
<path d="M446.043 122.968C446.043 129.468 446.383 133.668 446.894 133.668C447.404 133.668 447.745 130.468 447.745 125.968V118.168L454.552 126.168L461.359 134.168V123.368C461.359 116.868 461.019 112.668 460.508 112.668C459.998 112.668 459.657 115.868 459.657 120.368V128.168L452.85 120.168L446.043 112.168V122.968Z" fill="#3E8BFF"/>
<path d="M464.763 123.068V133.668H467.741C471.655 133.668 476.335 131.368 477.441 128.868C479.058 125.268 478.547 119.068 476.42 116.068C474.803 113.868 473.527 113.268 469.613 112.868L464.763 112.468V123.068ZM474.548 118.168C475.739 119.468 476.675 121.668 476.675 123.068C476.675 126.468 473.442 130.568 470.123 131.268L467.315 131.868V123.768V115.668H469.868C471.485 115.668 473.272 116.568 474.548 118.168Z" fill="#3E8BFF"/>
<path d="M488.588 123.168C488.588 133.668 489.949 137.968 490.46 128.868L490.715 124.168L493.608 128.868C495.225 131.568 497.097 133.668 497.693 133.668C499.309 133.668 499.054 132.768 496.586 128.968L494.374 125.568L496.161 123.268C499.99 118.568 497.352 112.668 491.396 112.668H488.588V123.168ZM494.629 116.568C496.331 118.168 496.501 118.868 495.736 120.368C495.225 121.368 493.779 122.268 492.502 122.468C490.46 122.768 490.29 122.468 490.29 119.368C490.29 114.168 491.396 113.468 494.629 116.568Z" fill="#3E8BFF"/>
<path d="M501.352 123.168V133.668H506.542C509.69 133.668 511.477 133.268 511.137 132.668C510.882 132.068 509.095 131.668 507.223 131.668C503.904 131.668 503.904 131.668 503.904 127.668C503.904 123.668 503.904 123.668 507.223 123.668C509.095 123.668 510.797 123.268 511.052 122.768C511.562 121.768 508.839 120.668 505.861 120.668C504.33 120.668 503.904 120.068 503.904 118.168C503.904 116.768 504.415 115.668 505.01 115.568C505.521 115.468 506.627 115.368 507.308 115.268C507.989 115.068 509.265 114.968 510.116 114.868C513.604 114.468 510.286 112.668 505.946 112.668H501.352V123.168Z" fill="#3E8BFF"/>
<path d="M514.115 123.168V133.668H517.944C520.071 133.668 521.773 133.168 521.773 132.668C521.773 132.068 520.667 131.668 519.22 131.668H516.668V122.168C516.668 114.368 516.412 112.668 515.391 112.668C514.37 112.668 514.115 114.468 514.115 123.168Z" fill="#3E8BFF"/>
<path d="M523.475 123.268C523.475 131.268 523.73 133.768 524.581 133.368C525.262 133.168 525.602 130.468 525.602 125.068C525.687 115.968 525.262 112.668 524.241 112.668C523.815 112.668 523.475 117.468 523.475 123.268Z" fill="#3E8BFF"/>
<path d="M531.558 123.168C529.261 128.968 527.644 133.868 527.815 134.068C528.41 134.768 529.772 133.468 530.793 131.168C531.473 129.668 532.75 129.068 535.983 128.868C539.812 128.568 540.238 128.868 541.174 131.168C541.684 132.568 542.705 133.668 543.386 133.668C544.407 133.668 543.726 131.168 540.833 123.868C538.706 118.568 536.664 113.768 536.324 113.368C535.983 112.968 533.771 117.368 531.558 123.168ZM537.6 122.168C538.196 124.068 538.791 125.768 538.791 125.968C538.791 126.068 537.515 126.068 535.898 125.868L532.92 125.468L534.281 122.068C535.047 120.168 535.813 118.668 535.983 118.668C536.153 118.668 536.919 120.268 537.6 122.168Z" fill="#3E8BFF"/>
<path d="M546.449 123.068V133.668H550.193C552.491 133.668 554.533 133.068 555.299 132.068C557 130.168 557.086 126.268 555.384 124.368C554.618 123.368 554.363 121.768 554.618 119.468C555.214 115.468 553.937 113.868 549.513 112.968L546.449 112.368V123.068ZM553.001 118.368C553.342 119.568 551.044 122.668 549.768 122.668C548.491 122.668 547.896 119.968 548.491 117.068C549.002 114.668 549.172 114.568 550.874 115.868C551.895 116.668 552.831 117.768 553.001 118.368ZM553.682 128.168C553.682 130.868 553.427 131.168 551.129 131.168C548.832 131.168 548.577 130.768 548.321 127.868C548.066 124.668 548.151 124.568 550.874 124.868C553.342 125.168 553.682 125.468 553.682 128.168Z" fill="#3E8BFF"/>
<path d="M559.213 123.168V133.668H563.467C565.85 133.668 567.722 133.168 567.722 132.668C567.722 132.068 566.36 131.668 564.744 131.668H561.766V122.168C561.766 114.368 561.51 112.668 560.489 112.668C559.468 112.668 559.213 114.468 559.213 123.168Z" fill="#3E8BFF"/>
<path d="M569.168 113.368C568.828 113.668 568.573 118.368 568.573 123.668V133.368L571.381 133.968C574.699 134.568 578.784 133.768 578.784 132.568C578.784 132.068 577.082 131.668 574.955 131.668H571.125V127.668V123.668H574.955C579.805 123.668 579.975 121.868 575.21 121.468C571.891 121.168 571.551 120.868 571.296 118.368C571.04 115.768 571.125 115.668 574.869 115.668C577.762 115.668 578.784 115.268 578.784 114.168C578.784 113.068 577.677 112.668 574.274 112.668C571.721 112.668 569.424 112.968 569.168 113.368Z" fill="#3E8BFF"/>
<path d="M588.739 113.268C588.399 113.668 588.144 118.468 588.144 123.868V133.668H591.888C597.078 133.668 599.716 132.268 601.333 128.768C603.375 124.068 602.949 119.968 600.141 116.568C598.78 114.968 596.908 113.668 595.972 113.668C595.036 113.668 593.249 113.368 591.888 113.068C590.526 112.768 589.165 112.868 588.739 113.268ZM597.844 117.768C599.546 119.368 600.056 120.668 600.056 123.568C600.056 128.168 598.099 130.468 593.76 131.368L590.696 131.968V123.768V115.668H593.164C594.44 115.668 596.567 116.568 597.844 117.768Z" fill="#3E8BFF"/>
<path d="M605.332 123.368L605.587 134.168H609.756C615.117 134.168 616.138 131.868 610.948 131.468C607.374 131.168 607.289 131.068 607.289 127.668C607.289 124.268 607.374 124.168 610.948 123.868C612.905 123.668 614.521 123.168 614.521 122.668C614.521 122.168 612.905 121.668 610.948 121.468C607.714 121.168 607.289 120.868 607.289 118.668C607.289 116.468 607.714 116.068 611.118 115.668C616.393 114.968 615.543 113.268 609.842 112.868L605.076 112.468L605.332 123.368Z" fill="#3E8BFF"/>
<path d="M617.925 123.668V134.668H621.754C624.562 134.668 625.583 134.268 625.583 133.168C625.583 132.068 624.647 131.668 622.52 131.668H619.372L619.967 123.868C620.563 116.168 620.137 112.668 618.691 112.668C618.265 112.668 617.925 117.568 617.925 123.668Z" fill="#3E8BFF"/>
<path d="M627.285 123.668C627.285 129.668 627.625 134.668 628.051 134.668C628.902 134.668 630.178 115.168 629.412 113.668C627.881 110.768 627.285 113.668 627.285 123.668Z" fill="#3E8BFF"/>
<path d="M631.539 113.568C631.539 115.768 638.602 134.668 639.198 133.968C639.708 133.268 641.75 127.768 646.515 114.068C646.771 113.468 646.345 112.968 645.664 112.968C644.899 112.968 643.537 115.768 642.006 120.368C640.729 124.368 639.453 127.668 639.198 127.668C638.857 127.668 637.496 124.468 636.134 120.468C633.922 114.168 631.539 110.568 631.539 113.568Z" fill="#3E8BFF"/>
<path d="M652.216 113.468L648.558 113.768V124.268V134.768L653.238 134.468C658.683 134.168 659.534 132.268 654.514 131.868C651.195 131.568 651.11 131.468 651.11 127.568C651.11 123.668 651.11 123.668 654.514 123.668C656.386 123.668 657.917 123.168 657.917 122.668C657.917 122.068 656.386 121.668 654.514 121.668C651.28 121.668 651.11 121.468 651.11 118.668C651.11 115.868 651.28 115.668 654.429 115.668C657.917 115.668 659.875 114.168 657.237 113.568C656.471 113.368 654.174 113.268 652.216 113.468Z" fill="#3E8BFF"/>
<path d="M70.7951 1.16742C57.9464 4.56742 42.46 12.7674 30.8027 22.4674C25.0165 27.2674 7.74321 46.9674 2.80798 54.4674L0 58.7674L6.55195 53.1674C19.6558 42.1674 40.0775 30.0674 56.6701 23.4674C72.1565 17.3674 84.4946 18.6674 90.0254 27.1674C95.4712 35.6674 92.9185 52.3674 83.984 66.0674C80.9208 70.7674 81.0059 70.7674 94.8756 59.7674C114.702 44.0674 117.339 40.0674 116.488 26.8674C115.638 13.8674 110.362 5.76742 100.321 2.06742C94.1949 -0.232575 77.9426 -0.732576 70.7951 1.16742Z" fill="#FF0B0B"/>
<path d="M644.729 22.9675C636.9 26.0675 632.731 30.1675 629.923 37.6675C628.391 41.8675 627.966 43.9675 626.945 53.1675C626.434 57.8675 627.966 68.2675 629.923 73.5675C632.05 79.5675 635.794 83.8675 641.325 86.8675C644.984 88.7675 647.026 89.0675 655.79 89.1675C664.725 89.1675 666.597 88.8675 670.511 86.7675C679.871 81.7675 684.636 71.0675 684.551 55.1675C684.466 39.7675 680.296 29.9675 671.787 25.0675C667.618 22.6675 665.831 22.2675 657.577 21.9675C651.366 21.7675 646.941 22.1675 644.729 22.9675ZM663.023 34.2675C668.128 36.6675 670.851 42.6675 671.362 52.6675C672.298 70.9675 665.576 80.2675 653.067 78.2675C645.835 77.1675 642.942 73.5675 640.985 63.6675C636.73 42.1675 647.962 27.2675 663.023 34.2675Z" fill="#3E8BFF"/>
<path d="M68.7529 41.1679C62.0308 45.2679 61.6053 45.2679 55.0534 42.6679C52.3305 41.5679 49.4374 40.6679 48.6716 40.6679C47.8207 40.6679 45.5233 42.4679 43.4811 44.5679L39.7371 48.4679L45.1829 51.3679L50.5436 54.2679L43.0556 61.3679C35.3124 68.6679 15.1461 91.9679 10.2959 99.1679C-0.170178 114.968 1.02108 130.768 13.189 134.768C17.7839 136.368 33.8659 136.268 41.0135 134.768C49.8629 132.768 58.9675 128.968 64.6686 124.968C69.6889 121.368 80.5804 110.868 79.9848 110.168C79.8146 109.968 77.347 111.068 74.539 112.668C71.731 114.268 66.8809 116.368 63.9027 117.268C53.6068 120.368 41.524 117.168 38.716 110.668C36.0782 104.568 38.0353 94.5679 43.4811 86.2679C48.4163 78.5679 59.478 65.0679 60.1588 65.8679C60.4991 66.1679 61.1799 69.6679 61.6053 73.4679L62.5413 80.5679L66.2853 77.5679L69.9441 74.5679V64.6679V54.7679L74.6241 49.3679C78.3681 45.0679 79.3041 43.2679 79.3041 40.8679C79.3041 38.0679 79.0488 37.6679 76.8364 37.6679C75.5601 37.6679 71.9012 39.2679 68.7529 41.1679Z" fill="#3E8BFF"/>
<path d="M99.3003 78.0681C92.6633 80.5681 74.1987 93.0681 75.3049 94.2681C75.5601 94.5681 78.5383 94.3681 81.8568 93.7681C93.5993 91.5681 100.577 95.2681 100.577 103.468C100.577 107.168 96.3222 117.068 92.408 122.468C84.5797 133.268 67.9871 140.268 41.439 144.068C35.3976 144.968 28.8456 145.868 27.0587 146.168C25.1867 146.468 23.57 146.868 23.3998 147.068C22.8042 147.668 30.8027 150.468 36.3336 151.568C67.902 157.768 96.9178 148.568 116.318 126.168C125.848 115.168 128.231 109.468 128.231 96.9681C128.231 88.1681 128.146 87.6681 125.678 84.5681C121.509 79.3681 115.638 76.6681 108.66 76.7681C105.427 76.7681 101.172 77.3681 99.3003 78.0681Z" fill="#02770E"/>
<path d="M672.383 113.168C672.383 113.568 673.489 116.268 674.85 119.068C676.212 121.868 677.658 126.568 677.999 129.468C678.679 135.968 680.041 136.268 680.041 129.868C680.041 126.568 680.807 123.568 682.594 119.768C685.572 113.468 685.487 113.668 683.955 113.668C683.359 113.668 682.338 114.968 681.743 116.668C679.871 121.968 678.679 122.168 676.467 117.568C674.765 113.768 672.383 111.268 672.383 113.168Z" fill="#3E8BFF"/>
<path d="M661.321 124.168C661.321 130.468 661.661 134.668 662.172 134.668C662.682 134.668 663.023 133.168 663.023 131.368C663.023 125.468 664.214 125.068 667.277 130.068C668.894 132.568 670.681 134.668 671.277 134.668C672.638 134.668 672.298 133.868 669.149 128.868L667.022 125.568L668.809 124.068C670.936 122.368 671.362 116.868 669.66 114.868C669.064 114.168 667.022 113.668 664.98 113.668H661.321V124.168ZM667.958 116.868C670.511 119.868 666.852 125.068 664.129 122.468C662.938 121.368 662.597 117.468 663.618 116.368C664.469 115.268 666.852 115.568 667.958 116.868Z" fill="#3E8BFF"/>
<path d="M187.369 116.868C187.369 118.568 188.9 118.668 208.896 118.668C220.639 118.668 255.356 118.968 285.903 119.368L341.382 119.968V117.768V115.668L296.114 115.568C271.183 115.568 236.466 115.468 219.107 115.368C189.241 115.168 187.369 115.268 187.369 116.868Z" fill="#3E8BFF"/>
<path d="M216.469 123.368C216.725 125.068 219.703 125.168 279.096 125.468C337.978 125.668 341.382 125.568 341.382 123.968C341.382 122.268 337.808 122.168 278.755 121.868C218.682 121.568 216.129 121.568 216.469 123.368Z" fill="#3E8BFF"/>
<path d="M187.369 129.668C187.369 131.668 187.454 131.668 264.46 131.668C337.383 131.668 341.467 131.568 341.212 129.868C340.956 128.268 336.532 128.168 264.12 127.868C187.454 127.568 187.369 127.568 187.369 129.668Z" fill="#3E8BFF"/>
</svg>
